<?xml version="1.0" encoding="UTF-8" standalone="no"?>
<svg
   version="1.0"
   width="500.000000pt"
   height="500.000000pt"
   viewBox="0 0 500.000000 500.000000"
   preserveAspectRatio="xMidYMid meet"
   id="svg11"
   sodipodi:docname="Logo-Santa_s-Elves.svg"
   inkscape:version="1.3.1 (91b66b0783, 2023-11-16)"
   xmlns:inkscape="http://www.inkscape.org/namespaces/inkscape"
   xmlns:sodipodi="http://sodipodi.sourceforge.net/DTD/sodipodi-0.dtd"
   xmlns="http://www.w3.org/2000/svg"
   xmlns:svg="http://www.w3.org/2000/svg">
  <defs
     id="defs11" />
  <sodipodi:namedview
     id="namedview11"
     pagecolor="#ffffff"
     bordercolor="#000000"
     borderopacity="0.25"
     inkscape:showpageshadow="2"
     inkscape:pageopacity="0.0"
     inkscape:pagecheckerboard="0"
     inkscape:deskcolor="#d1d1d1"
     inkscape:document-units="pt"
     inkscape:zoom="0.67139789"
     inkscape:cx="202.56245"
     inkscape:cy="88.621071"
     inkscape:window-width="1600"
     inkscape:window-height="829"
     inkscape:window-x="-8"
     inkscape:window-y="-8"
     inkscape:window-maximized="1"
     inkscape:current-layer="svg11" />
  <g
     transform="translate(0.000000,500.000000) scale(0.100000,-0.100000)"
     fill="#000000"
     stroke="none"
     id="g11">
    <path
       d="m 2539,4902 c -132,-62 -408,-344 -565,-578 -69,-103 -78,-111 -125,-128 -57,-21 -151,-87 -192,-136 -44,-52 -69,-109 -74,-170 -6,-68 9,-121 49,-172 l 28,-36 -34,-64 c -42,-76 -110,-251 -162,-411 -30,-97 -42,-121 -63,-132 -40,-21 -97,-78 -117,-116 -11,-21 -19,-59 -20,-99 -1,-36 -11,-96 -23,-134 -38,-122 -25,-227 34,-298 24,-29 25,-32 9,-49 -13,-15 -25,-17 -54,-13 -48,8 -141,-12 -210,-44 -75,-35 -164,-128 -204,-211 -28,-61 -31,-74 -31,-171 0,-97 2,-110 31,-170 30,-64 102,-161 153,-207 14,-13 88,-71 163,-130 145,-112 178,-153 178,-221 0,-69 -54,-142 -105,-142 -34,0 -36,10 -9,39 50,53 55,131 14,199 -29,47 -117,87 -172,78 -81,-13 -139,-56 -176,-131 -52,-103 -34,-199 54,-294 81,-88 156,-122 278,-129 1412.354,254.6753 3880.966,-389.90322 2692,953 -7,3 -6,7 2,11 7,3 33,21 58,40 38,30 50,33 83,28 26,-4 48,-1 69,10 36,18 104,104 127,159 41,98 -5,200 -103,226 -45,13 -92,-6 -137,-55 l -33,-35 -48,30 c -61,37 -127,54 -192,50 l -50,-4 -5,50 c -3,28 -8,57 -12,66 -4,12 4,22 29,37 89,53 117,166 78,318 -11,43 -20,106 -19,139 1,76 -23,125 -94,189 -28,25 -55,46 -59,46 -7,0 -60,156 -60,175 0,4 17,-7 37,-25 98,-87 219,-104 325,-48 111,59 164,152 156,276 -5,89 -36,152 -100,203 -27,21 -70,46 -96,55 l -47,17 -75,156 c -41,86 -96,193 -122,238 -179,313 -446,585 -700,715 -126,64 -282,85 -359,50 z m -64,-722 c 218,-20 537,-90 660,-145 67,-29 150,-96 171,-137 16,-30 13,-88 -6,-118 -8,-13 -12,-13 -32,-1 -87,54 -212,93 -413,128 -143,25 -569,25 -710,0 -166,-30 -296,-66 -380,-108 -45,-21 -84,-39 -87,-39 -3,0 -11,14 -17,31 -39,111 33,250 162,316 124,63 413,95 652,73 z m 983,-452 c 42,-29 81,-56 86,-60 7,-4 3,-18 -10,-35 -35,-47 -56,-94 -63,-141 -3,-25 -10,-45 -16,-44 -5,0 -17,22 -26,49 -9,26 -35,85 -58,131 l -42,83 21,35 c 12,19 24,34 26,34 3,0 39,-24 82,-52 z m 397,-62 c 93,-44 135,-112 135,-218 0,-75 -25,-132 -80,-182 -119,-107 -324,-56 -375,92 -71,210 126,400 320,308 z M 2797,3230 c 343,-28 714,-143 822,-254 32,-33 35,-41 42,-128 4,-51 15,-118 23,-148 23,-79 21,-167 -4,-208 -27,-43 -46,-49 -75,-22 -34,32 -97,44 -140,26 -30,-13 -35,-13 -47,1 -7,9 -13,27 -13,41 0,31 -22,39 -225,87 -179,42 -309,61 -514,76 -294,22 -652,-20 -984,-114 -73,-21 -77,-24 -80,-53 -2,-21 -12,-35 -32,-47 -16,-10 -43,-31 -60,-48 -27,-27 -35,-30 -68,-24 -53,9 -119,51 -137,85 -21,41 -19,136 5,212 11,34 20,91 20,126 0,77 24,128 77,165 150,104 486,200 783,225 151,13 458,14 607,2 z m 88,-615 c 143,-17 209,-29 348,-67 73,-19 77,-21 57,-35 -25,-18 -50,-65 -50,-95 0,-15 -16,-39 -40,-63 -22,-21 -40,-44 -40,-51 0,-14 -108,-25 -167,-17 l -43,6 v 50 c 0,64 -27,97 -77,97 -49,0 -68,-13 -113,-80 -22,-32 -56,-71 -75,-86 l -35,-26 -35,30 c -46,41 -107,59 -147,44 -25,-9 -32,-8 -49,9 -10,10 -23,19 -28,19 -25,0 -223,-105 -229,-121 -7,-18 -10,-17 -46,7 -50,34 -116,54 -177,54 h -47 l 5,39 c 7,55 -2,84 -39,127 -36,41 -81,64 -130,65 -32,1 -32,1 12,15 123,40 297,69 585,98 83,8 425,-3 560,-19 z m 483,-157 c 7,-7 12,-20 12,-31 0,-39 -117,-176 -139,-163 -18,11 -13,27 15,49 42,33 65,76 51,98 -9,14 -7,22 7,38 22,24 37,26 54,9 z m -1585,-16 c 65,-44 76,-104 28,-153 -31,-31 -53,-35 -95,-19 -55,20 -66,103 -18,129 22,12 59,4 65,-13 8,-21 -9,-39 -32,-33 -13,3 -21,0 -21,-8 0,-20 27,-37 49,-30 47,15 29,86 -25,99 -42,11 -78,-21 -82,-71 -3,-34 5,-51 50,-119 29,-43 63,-108 75,-143 18,-55 22,-61 32,-43 6,10 26,27 45,36 38,18 121,22 131,6 13,-22 23,-8 16,23 -15,62 -28,77 -71,77 -21,0 -42,-4 -45,-10 -3,-5 1,-10 9,-10 19,0 19,-1 6,-34 -13,-35 -61,-36 -79,-2 -40,74 119,128 232,78 65,-29 91,-72 95,-157 2,-38 -1,-90 -6,-114 -11,-46 -6,-75 10,-65 5,3 8,20 6,37 -3,28 0,32 22,32 20,0 27,-7 35,-32 26,-91 49,9 38,169 -6,96 -6,98 -29,92 -19,-5 -24,-2 -24,12 0,18 24,30 172,92 4,2 8,-6 8,-18 0,-24 0,-24 78,4 37,14 47,14 76,2 62,-26 71,-52 74,-218 3,-119 7,-148 18,-148 11,0 12,4 3,19 -16,24 -5,51 20,51 21,0 41,-27 41,-54 0,-9 -12,-29 -27,-45 -26,-27 -34,-30 -103,-32 -121,-3 -130,-2 -130,21 0,13 7,20 20,20 20,0 20,5 18,168 l -3,167 -29,-2 c -16,-1 -33,-6 -39,-12 -13,-13 -9,-314 5,-322 6,-4 8,-14 5,-23 -9,-24 -187,-24 -187,0 0,11 -9,7 -29,-15 -16,-17 -38,-31 -49,-31 -43,0 -83,14 -106,36 -20,21 -25,22 -36,9 -35,-42 -145,-39 -185,4 -17,20 -18,20 -49,-13 -56,-60 -177,-70 -249,-22 -25,17 -33,30 -35,60 -4,45 29,89 63,84 25,-4 31,-33 11,-54 -20,-19 -20,-29 0,-48 42,-42 104,4 104,78 -1,42 -9,61 -94,220 -38,70 -48,99 -48,136 0,101 72,169 182,170 37,0 64,-6 83,-18 z m 1775,-15 c 14,-11 16,-57 2,-57 -5,0 -15,9 -22,20 -7,11 -20,20 -28,20 -9,-1 -3,-9 15,-23 87,-64 99,-115 40,-174 -34,-34 -38,-35 -92,-31 -63,6 -93,30 -93,77 0,49 46,83 75,55 21,-21 19,-40 -6,-58 -25,-17 -17,-36 15,-36 56,0 62,58 11,106 -49,46 -47,93 5,112 26,10 57,5 78,-11 z m -680,-130 c 3,-80 4,-86 25,-89 12,-2 34,2 49,9 33,16 43,4 27,-31 -10,-22 -19,-26 -56,-26 h -43 v -165 c 0,-157 1,-165 20,-165 14,0 21,9 26,35 4,24 12,35 24,35 14,0 18,9 18,43 1,56 13,86 46,116 34,32 124,41 161,17 l 25,-16 -7,32 c -3,18 -12,45 -20,61 -11,22 -20,27 -53,27 -21,0 -42,-4 -45,-10 -3,-5 -2,-10 3,-10 18,0 21,-29 6,-45 -20,-20 -60,-19 -68,1 -24,63 10,97 104,102 57,4 77,0 125,-22 73,-33 90,-69 82,-177 l -5,-76 26,5 c 17,3 29,-1 39,-13 20,-29 16,-54 -16,-86 -24,-24 -38,-29 -76,-29 -38,0 -52,5 -76,29 -19,19 -29,24 -29,15 0,-40 -130,-55 -169,-20 -16,15 -19,13 -40,-15 -40,-55 -122,-74 -181,-44 -48,25 -54,47 -58,218 l -4,157 h -39 c -28,0 -39,4 -39,15 0,8 7,15 15,15 25,0 112,88 146,147 17,30 36,52 43,50 7,-2 12,-36 14,-90 z m -1444,53 c 26,-10 34,-34 16,-45 -13,-8 -91,35 -84,47 7,11 37,10 68,-2 z m -152,-61 c 96,-20 195,-95 218,-165 7,-20 10,-63 8,-95 -3,-47 -10,-66 -34,-96 -49,-60 -78,-76 -141,-81 -51,-3 -64,0 -104,26 -35,23 -51,41 -64,76 -17,44 -17,48 -1,91 42,109 181,128 222,30 26,-63 -17,-123 -77,-110 -38,9 -59,47 -41,76 15,23 5,25 -20,2 -53,-48 19,-128 98,-109 46,12 74,50 74,101 0,58 -20,97 -62,123 -134,82 -272,-11 -273,-184 0,-109 27,-146 188,-253 144,-97 244,-188 271,-244 10,-21 24,-71 32,-112 14,-64 14,-83 1,-158 -25,-144 -87,-235 -196,-286 -48,-22 -69,-26 -151,-26 -157,1 -263,57 -310,167 -50,117 23,258 134,258 93,0 143,-79 101,-161 -14,-26 -21,-29 -53,-27 -36,3 -37,2 -35,-30 2,-44 34,-77 86,-91 143,-36 252,115 206,284 -14,50 -75,110 -231,228 -134,101 -190,159 -238,248 -33,61 -35,69 -35,164 0,87 3,107 26,156 45,95 130,164 239,193 68,18 95,19 162,5 z m 2873,-120 c 39,-38 15,-135 -50,-205 -21,-22 -42,-34 -58,-34 -35,0 -44,19 -19,39 20,16 56,116 47,131 -3,5 -14,6 -25,3 -44,-12 -32,63 14,86 27,13 66,5 91,-20 z m -307,-8 c 73,-37 117,-109 109,-177 -16,-145 -206,-184 -280,-56 -24,40 -17,74 23,113 34,35 81,38 110,9 26,-26 26,-66 1,-80 -25,-13 -27,-13 -46,6 -20,20 -33,10 -19,-14 7,-10 27,-18 52,-20 34,-3 43,1 57,22 14,21 15,31 6,58 -13,39 -36,56 -88,63 -97,15 -177,-112 -129,-203 22,-43 65,-77 156,-127 172,-95 290,-199 332,-292 29,-66 36,-209 14,-285 -24,-85 -92,-170 -163,-204 -51,-26 -69,-29 -148,-29 -105,1 -157,20 -218,81 -52,51 -77,103 -77,160 0,65 32,118 88,146 42,20 48,20 86,7 56,-19 84,-72 63,-121 -20,-47 -42,-64 -62,-48 -22,18 -39,-1 -31,-35 21,-85 142,-109 215,-42 52,48 79,170 52,239 -18,46 -91,115 -205,192 -182,123 -270,234 -283,358 -11,112 52,228 149,277 58,28 182,30 236,2 z m -398,-50 c -1,-3 -9,-31 -20,-61 -28,-81 -42,-77 -37,11 3,41 5,75 6,76 2,5 51,-20 51,-26 z M 1588,2002 c -22,-9 -34,9 -36,54 l -2,49 23,-50 c 13,-27 20,-52 15,-53 z m 1089,26 c -2,-13 -4,-3 -4,22 0,25 2,35 4,23 2,-13 2,-33 0,-45 z m -877,-214 c 0,-8 -5,-12 -10,-9 -6,4 -8,11 -5,16 9,14 15,11 15,-7 z m -337,-37 c 23,-19 63,-44 90,-56 28,-14 53,-35 62,-52 23,-44 18,-129 -8,-129 -6,0 -42,30 -81,68 -39,37 -99,88 -133,114 -35,27 -63,52 -63,58 0,5 12,10 28,10 15,0 34,5 42,10 20,13 16,14 63,-23 z m 1162,-33 c 7,-48 104,-446 109,-452 4,-3 66,251 66,269 0,5 -9,9 -21,9 -15,0 -20,5 -17,23 3,20 8,22 53,21 119,-4 115,-3 115,-24 0,-15 -7,-20 -28,-20 -28,0 -29,-2 -66,-137 -21,-76 -53,-192 -72,-258 -20,-66 -37,-128 -40,-137 -12,-40 -84,-28 -84,15 -1,15 -5,10 -15,-17 -27,-78 -35,-81 -217,-84 -190,-4 -208,-1 -208,33 0,20 6,27 30,32 l 30,6 v 353 c 0,347 0,354 -20,354 -15,0 -20,7 -20,25 v 25 h 106 c 93,0 105,-2 100,-16 -3,-9 -6,-20 -6,-25 0,-5 -7,-9 -15,-9 -13,0 -15,-46 -15,-355 v -355 h 51 51 l -7,29 c -18,83 73,130 128,67 l 19,-21 -6,25 c -4,14 -11,48 -17,75 -14,62 -105,393 -116,420 -5,14 -17,20 -37,20 -43,0 -43,21 -1,35 21,7 58,35 88,66 28,30 56,54 63,54 6,0 15,-21 19,-46 z m 106,20 c 34,-37 72,-54 119,-54 42,0 50,-9 25,-30 -10,-9 -32,-11 -66,-7 -37,5 -57,2 -74,-9 -23,-15 -24,-14 -34,23 -13,45 -14,103 -3,103 5,0 19,-12 33,-26 z m 699,-3 c 19,-46 8,-53 -30,-21 -29,25 -32,31 -20,40 25,16 37,12 50,-19 z m -1273,-11 c 36,-21 50,-66 39,-125 -10,-50 -43,-69 -108,-63 -63,6 -87,33 -88,96 v 42 h -50 -50 v -145 -145 h 45 45 v 40 c 0,39 1,40 35,40 h 35 v -110 -110 h -35 c -33,0 -35,2 -35,35 0,35 0,35 -45,35 h -45 v -155 -155 h 68 c 38,0 72,3 75,7 4,3 -5,16 -18,29 -29,27 -32,60 -7,90 42,53 103,54 147,2 30,-36 32,-77 6,-135 -34,-74 -52,-78 -305,-76 -229,1 -235,3 -236,46 0,11 12,22 30,28 l 30,11 v 154 c 0,147 -1,154 -20,154 -31,0 -28,57 3,62 21,3 22,6 25,143 3,132 2,141 -18,157 -12,10 -20,25 -18,35 3,16 22,18 203,23 110,3 214,7 230,8 17,1 44,-7 62,-18 z m 831,-15 c -24,-36 -48,-53 -48,-33 0,14 50,68 62,68 4,0 -2,-16 -14,-35 z m 325,-11 c 74,-38 107,-88 107,-163 0,-42 -5,-56 -30,-85 -58,-65 -130,-69 -192,-9 -53,51 -43,135 21,167 58,31 135,-24 115,-81 -8,-24 -15,-28 -49,-28 -38,0 -40,1 -40,32 0,24 -3,29 -12,21 -35,-28 3,-88 55,-88 32,0 72,43 72,77 0,78 -110,129 -190,88 -37,-19 -70,-82 -70,-133 0,-64 33,-102 173,-199 67,-47 98,-99 104,-175 5,-76 -20,-135 -80,-182 -33,-26 -46,-30 -122,-34 -106,-6 -160,12 -208,69 -55,63 -70,135 -41,195 20,41 59,64 110,64 48,0 104,-53 104,-99 0,-75 -95,-107 -151,-52 l -29,29 6,-26 c 10,-43 38,-86 66,-101 53,-30 149,21 169,90 24,77 1,113 -156,243 -57,47 -85,103 -85,171 0,138 119,242 263,230 32,-3 72,-12 90,-21 z m 303,-190 c 22,-16 81,-59 133,-94 113,-77 143,-117 143,-190 -1,-60 -28,-114 -60,-118 -27,-4 -27,-2 -1,43 29,49 23,133 -12,171 -53,58 -150,80 -212,47 -98,-50 -131,-103 -131,-208 0,-80 24,-138 77,-186 34,-31 32,-39 -16,-55 L 2206,904 c 13.7998,-5.71027 286.8661,-42.96637 392,23 41,25 58,31 86,26 31,-5 40,-1 69,28 26,27 38,52 55,119 44,168 89,311 98,308 5,-1 21,-21 35,-44 l 27,-41 -45,-38 c -25,-21 -51,-53 -59,-71 -32,-77 -4,-193 63,-259 130.5646,-133.91242 396.514,-119.19101 482,50 22,42 26,63 26,140 0,86 -2,93 -34,143 -18,29 -40,56 -47,60 -11,6 -6,14 23,33 62,40 96,99 101,171 5,94 6,95 56,52 24,-22 61,-53 82,-70 z M 2200,1365 c 0,-80 -3,-145 -7,-145 -3,0 -21,11 -40,26 l -33,25 v 108 108 l 33,11 c 17,5 35,10 40,11 4,1 7,-64 7,-144 z m 288,30 c 17,-60 38,-132 46,-158 l 15,-48 -45,-19 c -25,-11 -48,-20 -50,-20 -2,0 -4,82 -4,182 0,100 2,179 4,177 2,-2 17,-53 34,-114 z m -508,-205 c -6,-11 -15,-20 -20,-20 -6,0 -10,9 -10,20 0,13 7,20 20,20 18,0 19,-3 10,-20 z m -350,-109 c 0,-6 -4,-13 -10,-16 -5,-3 -10,1 -10,9 0,9 5,16 10,16 6,0 10,-4 10,-9 z m -50,-119 c 0,-10 12,-29 26,-43 l -89,-14 c 12,4 14,8 5,17 -9,9 -7,17 10,35 26,28 48,30 48,5 z"
       id="path1"
       sodipodi:nodetypes="ccccccccccccccccccscccssccccccccccccccccccccccccssccccccccccccccccccsccccccccccccsccscccccccccccscccccscccsccccccscsccsscccccssccscccccccsscsccsccccccsccccccsccscscccccccscccscscccscssccsscccsccscscccccccccccscccssccscsccscccccccscsscscccccsscsccccccccsssscccccssscsccccccccccccccccccscccccccccscccccccscccccssssccccccscsccssccccccccsccccccscccccccccccccccsccsccscccsccssccccssccssccccccsccssscscssscccccccccsscsccsccccsccccccccccccccccsscccssscccscccccccccssccccccccssccsccccsscsscsccccccssccccccscccccccccsccccccccccccccsccccccssccccccsccccsssccssscscssssccscs"
       style="fill:#ff0000" />
    <path
       d="M2266 2597 c-38 -27 2 -95 42 -71 24 16 28 55 6 71 -10 7 -21 13 -24 13 -3 0 -14 -6 -24 -13z"
       id="path2" />
    <path
       d="M2677 2589 c-20 -27 -10 -58 19 -65 30 -8 54 11 54 40 0 46 -48 62 -73 25z"
       id="path3" />
    <path
       d="M1933 2030 c-12 -5 -27 -19 -34 -31 -15 -30 -15 -95 1 -114 18 -22 54 -19 76 7 10 12 14 18 7 15 -6 -4 -23 -2 -37 4 -36 17 -36 65 -2 81 14 6 32 8 40 5 19 -7 21 -48 4 -65 -8 -8 -8 -12 -1 -12 26 0 32 80 7 104 -17 18 -29 19 -61 6z"
       id="path4"
       style="fill:#008000" />
    <path
       d="M3420 2275 c0 -8 4 -15 10 -15 5 0 7 7 4 15 -4 8 -8 15 -10 15 -2 0 -4 -7 -4 -15z"
       id="path5"
       style="fill:#ff0000" />
    <path
       d="M3102 2025 c-25 -18 -40 -66 -34 -108 6 -36 40 -54 71 -38 29 16 27 25 -9 38 -22 8 -30 18 -30 35 0 47 46 64 83 31 19 -17 19 -17 12 7 -16 52 -49 65 -93 35z"
       id="path6"
       style="fill:#ff0000" />
    <path
       d="M3310 1899 c0 -24 23 -21 28 4 2 10 -3 17 -12 17 -10 0 -16 -9 -16 -21z"
       id="path7"
       style="fill:#ff0000" />
    <path
       d="M2552 1089 c2 -6 8 -10 13 -10 5 0 11 4 13 10 2 6 -4 11 -13 11 -9 0 -15 -5 -13 -11z"
       id="path8"
       style="fill:#ff0000" />
    <path
       d="M2095 1660 c-3 -5 -3 -15 1 -22 5 -8 2 -9 -9 -5 -10 3 -17 2 -17 -3 0 -15 20 -22 46 -16 27 7 33 40 8 50 -21 8 -22 8 -29 -4z"
       id="path9"
       style="fill:#ff0000" />
    <path
       d="M2082 1138 c-19 -19 -14 -30 7 -18 11 5 27 7 35 4 9 -3 16 -2 16 4 0 9 -22 22 -39 22 -4 0 -12 -5 -19 -12z"
       id="path10"
       style="fill:#ff0000" />
    <path
       d="M3013 1199 c9 -5 17 -20 17 -33 0 -29 6 -35 31 -29 43 12 10 73 -39 73 -23 -1 -25 -2 -9 -11z"
       id="path11"
       style="fill:#ff0000" />
    <path
       d="M1933 2030 c-12 -5 -27 -19 -34 -31 -15 -30 -15 -95 1 -114 18 -22 54 -19 76 7 10 12 14 18 7 15 -6 -4 -23 -2 -37 4 -36 17 -36 65 -2 81 14 6 32 8 40 5 19 -7 21 -48 4 -65 -8 -8 -8 -12 -1 -12 26 0 32 80 7 104 -17 18 -29 19 -61 6z"
       id="path55"
       style="fill:#ff0000" />
  </g>
  <path
     style="fill:#ff0000;fill-opacity:0.891667;stroke-width:1.05319"
     d="m 185.67124,552.54578 -6.01118,1.24159 c -3.30615,0.68288 -10.50393,1.24159 -15.99508,1.24159 -17.39444,0 -28.07713,-4.1684 -39.00175,-15.21857 -12.46837,-12.61163 -15.77492,-25.33905 -9.91625,-38.1692 5.55333,-12.16146 14.56806,-18.6753 25.85334,-18.68102 19.73786,-0.01 30.56407,20.07553 18.79988,34.87884 -3.47321,4.37046 -3.41813,5.95974 0.22495,6.49005 8.98677,1.30819 17.8169,-13.45867 14.78369,-24.72315 -1.69311,-6.28772 -6.82547,-11.53067 -26.75471,-27.33119 -9.96174,-7.89798 -19.88397,-16.32444 -22.04939,-18.72545 -5.90015,-6.54209 -14.22967,-18.81829 -17.41876,-25.67209 -2.60814,-5.60527 -2.82883,-7.14168 -2.84733,-19.82227 l -0.0201,-13.74604 4.11418,-8.37086 c 5.18929,-10.55832 18.37309,-24.35032 27.07582,-28.3249 8.38208,-3.82813 17.27552,-5.84902 25.74008,-5.84902 5.94228,0 7.87905,-0.40295 9.2574,-1.92601 2.29131,-2.53187 2.22428,-3.03671 -0.95694,-7.20751 -7.52787,-9.86955 -9.17457,-22.89872 -4.83551,-38.25985 1.22716,-4.34439 2.71915,-12.60579 3.31553,-18.35866 1.26511,-12.20361 3.62061,-17.15292 11.15299,-23.43437 11.20766,-9.34635 10.54726,-8.29906 16.81386,-26.66405 7.6582,-22.44321 14.32096,-39.2799 20.13531,-50.88167 l 4.6512,-9.28082 -4.13718,-6.19547 c -7.06025,-10.57282 -7.93022,-19.55662 -3.13489,-32.37326 3.84724,-10.28268 17.10991,-22.33284 32.67323,-29.68616 6.50985,-3.07576 7.36404,-3.92425 15.1914,-15.089998 14.21872,-20.283037 24.33498,-32.293226 42.42169,-50.363687 17.4988,-17.483078 28.48926,-26.398521 35.73119,-28.985061 8.63443,-3.0838887 24.64084,-1.231803 39.00967,4.51377 22.56753,9.023937 51.60136,32.852192 74.19346,60.891065 14.00603,17.382792 24.36118,34.271281 38.46046,62.726231 l 13.33769,26.91793 4.78893,1.7488 c 2.6339,0.96185 7.67488,3.61409 11.20217,5.89389 10.87252,7.02725 16.13107,17.19782 16.13107,31.19912 0,15.19364 -7.2312,26.64088 -21.26356,33.66099 -6.46337,3.23349 -8.46277,3.72982 -15.02525,3.72982 -9.7622,0 -16.04728,-2.20221 -24.46161,-8.57099 -3.72077,-2.81624 -6.97689,-5.12043 -7.23585,-5.12043 -1.15536,0 -0.23629,4.51144 2.67156,13.114 3.00718,8.89639 3.50175,9.63024 11.49459,17.05575 10.63229,9.87761 12.58067,13.82981 13.77189,27.93558 0.50526,5.98309 1.72171,14.65338 2.70322,19.26733 3.7361,17.56277 0.23334,30.46399 -10.33202,38.05444 -4.61449,3.31517 -5.09493,4.02598 -4.4253,6.54718 0.41313,1.55554 1.04926,5.43488 1.41358,8.62077 l 0.66242,5.79252 10.00526,0.63716 c 10.50273,0.66882 15.94817,2.34096 24.38671,7.48841 l 4.90277,2.99066 5.4045,-5.26414 c 9.34705,-9.10432 17.9903,-9.51326 26.26107,-1.24248 7.56909,7.56909 8.13501,17.2948 1.63451,28.08996 -8.08768,13.43094 -13.64094,17.73221 -23.08926,17.88374 -5.94575,0.0954 -7.00523,0.49945 -13.5451,5.16621 -3.90216,2.78452 -6.95452,5.19541 -6.78304,5.35753 0.17148,0.16212 4.10325,2.80778 8.73727,5.87925 10.35452,6.86306 27.46096,23.82174 31.30927,31.03883 4.28273,8.03181 6.07883,16.41934 6.07883,28.3873 0,16.91335 -4.98883,29.68735 -15.81859,40.50385 -7.02103,7.01244 -15.44053,11.28947 -26.52099,13.47244 z m 26.54572,-13.0928 c -1.9326,-4.08076 -5.00493,-4.38942 -8.34132,-0.838 z m 260.39572,1.65086 c 2.08616,-0.99742 4.10715,-2.32178 4.4911,-2.94301 0.38394,-0.62123 -1.28086,-3.27641 -3.69956,-5.90039 -6.94949,-7.53931 -8.95134,-12.93684 -8.93763,-24.09825 0.01,-8.12792 0.38521,-10.14705 2.63297,-14.16883 3.0612,-5.47721 9.4151,-10.63575 16.37361,-13.29323 4.26694,-1.62956 5.72701,-1.71622 10.85991,-0.64461 7.20391,1.504 13.71823,5.82992 16.19712,10.75595 2.44022,4.8492 2.31586,13.05089 -0.2848,18.78221 -2.71258,5.978 -2.63405,6.67306 0.70886,6.27406 3.73225,-0.44545 6.44053,-4.36027 7.8808,-11.3917 2.5146,-12.27628 -1.48778,-18.07338 -23.04614,-33.38025 -7.68572,-5.45702 -17.16912,-12.73721 -21.07423,-16.1782 -3.90509,-3.44098 -7.80307,-6.13382 -8.66216,-5.98408 -1.11007,0.19349 -1.92336,2.81492 -2.81112,9.06107 -1.58794,11.17241 -4.78596,17.4413 -11.47985,22.50324 -2.85924,2.16217 -5.37203,4.45144 -5.58396,5.08726 -0.21194,0.63582 0.7945,2.42128 2.23655,3.96768 1.44203,1.54641 3.98238,4.94434 5.64519,7.55098 2.88543,4.52321 3.02187,5.29165 2.99181,16.85097 -0.0272,10.4797 -0.35912,12.77923 -2.46307,17.06624 -11.46778,23.36675 -46.42865,25.04084 -63.82754,7.64203 -7.80441,-7.80442 -11.95771,-22.48666 -8.95698,-31.66373 0.8506,-2.60136 3.76714,-6.45465 7.96904,-10.52855 l 6.62743,-6.42555 -3.60017,-5.34594 c -1.98009,-2.94026 -4.08863,-5.64783 -4.68564,-6.0168 -1.67389,-1.03452 -4.69941,7.09269 -11.29143,30.33126 -5.5334,19.50671 -6.37288,21.63561 -10.15042,25.74146 -3.76903,4.0966 -4.55558,4.47604 -9.2785,4.47604 -3.8197,0 -6.99985,0.94667 -12.2408,3.64384 z m -286.90208,2.50252 c 8.84282,-4.56096 15.30111,-11.22392 19.62556,-20.24752 4.23698,-8.84109 7.47791,-25.04067 6.47442,-32.36196 -1.04214,-7.60326 -3.87533,-18.24557 -5.94445,-22.32916 -3.56304,-7.03199 -17.8074,-19.45844 -40.51595,-35.3452 -16.20693,-11.33828 -19.80667,-16.48998 -19.82521,-28.37255 -0.0146,-9.35942 1.61833,-15.0792 5.89917,-20.66338 6.61396,-8.62765 17.21591,-10.95557 26.98927,-5.92618 12.2153,6.28604 14.06764,22.77719 3.21131,28.58989 -9.093,4.86858 -20.90648,-4.06887 -15.25484,-11.541 1.45079,-1.91813 1.54835,-1.8052 1.57977,1.82864 0.0727,8.39968 11.1825,11.1572 16.58768,4.11715 1.852,-2.41216 1.63709,-10.33868 -0.37255,-13.74074 -7.20628,-12.19926 -28.08261,-5.57204 -30.5612,9.70169 -1.78148,10.97799 9.39669,22.91328 21.44662,22.89925 8.66453,-0.0101 12.9979,-1.8193 18.93473,-7.90541 6.47235,-6.63509 8.15857,-11.56929 7.4371,-21.7624 -0.84997,-12.00853 -7.06122,-19.62389 -21.52689,-26.39319 -8.147,-3.81245 -19.49574,-4.99739 -28.78406,-3.00539 -14.16345,3.03751 -27.53148,13.24614 -33.66778,25.71072 -2.87146,5.83277 -3.44249,8.33344 -3.92701,17.19714 -0.71076,13.00263 0.73147,20.16976 5.7955,28.80055 5.86863,10.0021 12.66616,16.86977 31.82038,32.14874 19.70954,15.72191 27.52577,23.51543 29.45911,29.37352 1.92264,5.82565 0.94347,19.01325 -1.80534,24.31448 -5.88869,11.35668 -17.84039,16.06395 -28.13414,11.08082 -4.7257,-2.28767 -7.94511,-6.73685 -7.94511,-10.98002 0,-2.53581 0.34142,-2.73377 4.71506,-2.73377 6.2181,0 8.44976,-3.11166 8.44976,-11.78176 0,-5.39254 -0.3688,-6.45068 -3.25377,-9.33565 -8.88218,-8.88219 -24.50386,-4.54015 -30.2289,8.40209 -4.50878,10.19272 -1.96311,22.75873 6.46227,31.89918 8.31091,9.01627 19.1585,12.50844 37.55226,12.0892 11.93165,-0.27194 13.01108,-0.48035 19.30723,-3.72778 z m 249.46341,-2.36542 c 4.09239,-1.5251 11.12577,-8.71632 13.2964,-13.59481 1.47879,-3.32361 2.09591,-6.94158 2.06584,-12.11164 -0.0752,-12.92896 -3.02032,-17.51252 -19.0745,-29.68594 -6.56123,-4.9752 -13.11732,-10.8407 -14.56907,-13.03446 -6.48576,-9.80064 -0.25979,-25.85632 10.83339,-27.93742 4.18996,-0.78603 10.4053,0.7287 13.57904,3.30935 2.0765,1.68846 2.07641,1.69261 -0.0202,0.89693 -1.15851,-0.43965 -4.35911,-0.99813 -7.11245,-1.24104 -4.58469,-0.40449 -5.31606,-0.13167 -8.68879,3.24105 -3.35144,3.35145 -3.6827,4.22569 -3.6827,9.71913 0,5.70455 0.24795,6.28436 4.51001,10.54643 7.28811,7.28811 16.43656,7.64632 23.86579,0.93447 5.19773,-4.69585 6.75375,-8.59676 6.17032,-15.46893 -0.65072,-7.66474 -3.52501,-13.05492 -9.1307,-17.12298 -6.20804,-4.50517 -11.10649,-5.89551 -20.7711,-5.89551 -17.75239,0 -30.74934,11.56279 -31.845,28.331 -0.81019,12.39944 0.50513,14.85358 16.2064,30.23783 7.68544,7.53028 14.48803,14.72662 15.11687,15.99185 2.82057,5.67505 0.48376,13.7171 -5.5167,18.98558 -8.13445,7.14215 -16.69709,6.21413 -21.48608,-2.32867 -3.01026,-5.36981 -3.21527,-7.91335 -0.43502,-5.39726 7.58597,6.86522 20.15565,2.5255 20.15565,-6.95879 0,-8.63091 -7.66577,-15.21589 -16.54781,-14.21475 -9.58969,1.08089 -14.31819,7.55971 -13.75754,18.85009 0.30508,6.14371 0.86052,7.76691 4.43241,12.95312 4.6624,6.76961 10.77802,10.84328 18.20852,12.12886 5.48695,0.94932 20.49454,0.2463 24.19704,-1.13349 z m -160.95099,-0.89529 c 8.82733,-1.0222 12.12964,-2.94962 15.20415,-8.87406 4.74095,-9.13559 3.09623,-18.38857 -4.05406,-22.80769 -6.10249,-3.77156 -13.48346,-1.83837 -17.37993,4.55206 -2.67496,4.38706 -2.59897,5.78124 0.56922,10.44366 1.44813,2.13112 2.63297,4.13687 2.63297,4.45723 0,0.32036 -3.79147,0.58247 -8.42549,0.58247 h -8.42549 v -20.06824 -20.06824 l 5.00263,0.321 c 4.87392,0.31275 5.01162,0.41561 5.35161,3.99795 0.41546,4.37741 1.52118,5.23762 6.76003,5.25901 l 3.94945,0.0161 v -15.32889 -15.3289 l -5.00263,0.321 -5.00264,0.321 -0.321,5.00263 -0.321,5.00263 h -5.20822 -5.20823 V 459.18905 440.2317 h 5.79252 5.79253 v 4.24657 c 0,5.39394 2.33697,11.03687 5.20692,12.57282 4.00878,2.14543 11.89727,2.50047 16.14288,0.72654 4.63027,-1.93465 6.03946,-4.88812 6.01751,-12.61186 -0.0193,-6.77535 -1.59837,-10.01336 -6.19152,-12.6959 -3.45089,-2.01542 -4.58069,-2.05024 -34.03968,-1.04873 -24.55936,0.83492 -30.65661,1.33029 -31.43059,2.55355 -1.38993,2.19675 -1.27757,2.59706 1.733,6.17494 2.72217,3.23511 2.72508,3.25989 2.36967,20.17721 l -0.35585,16.93812 -2.89626,2.10833 c -3.43284,2.49895 -4.06353,7.88722 -1.05319,8.99789 1.01369,0.37401 2.19127,1.18853 2.61684,1.81003 0.42557,0.62151 0.77974,9.42385 0.78705,19.56076 l 0.0133,18.43075 -3.93418,2.10637 c -4.43612,2.37512 -5.24424,4.35023 -3.02475,7.39267 1.30025,1.78234 3.18275,2.17292 12.93198,2.68301 18.35876,0.96056 35.05686,0.95705 43.40047,-0.009 z m 256.89242,-3.19024 c 8.28577,-4.41628 15.23907,-11.85193 19.50596,-20.85912 3.2906,-6.94627 3.35438,-7.37129 3.35438,-22.35211 0,-11.90825 -0.41133,-16.4491 -1.86782,-20.62007 -4.09129,-11.71626 -18.76367,-25.44877 -41.9704,-39.28184 -20.95993,-12.49379 -25.14546,-16.86927 -25.14546,-26.28664 0,-5.66625 1.5511,-9.46837 5.55685,-13.62116 5.20742,-5.39857 10.67856,-6.2229 18.96868,-2.85798 2.3673,0.96089 4.96368,5.8822 4.96368,9.40844 0,1.47689 -0.99228,3.67754 -2.20507,4.89033 -1.78153,1.78153 -2.94471,2.06687 -6.05582,1.48553 -4.11866,-0.76958 -6.48372,-2.22238 -6.48372,-3.98278 0,-0.5981 0.92878,-0.24694 2.06394,0.78037 4.15495,3.76018 10.4851,-0.71671 9.05729,-6.40559 -1.67487,-6.67314 -10.89971,-9.15694 -16.79276,-4.52146 -8.39473,6.6033 -7.56909,16.38754 1.99868,23.68524 8.33872,6.36025 22.74711,3.94443 28.52214,-4.78223 7.18752,-10.86106 2.25482,-26.82267 -10.29467,-33.31225 -8.37801,-4.33244 -26.83322,-3.74407 -35.13327,1.12008 -9.13134,5.35132 -15.57272,15.31959 -17.61908,27.26618 -3.18022,18.56599 8.35338,36.36854 36.52201,56.37303 14.88385,10.57005 25.00201,19.79963 27.51774,25.10113 3.87179,8.15922 0.84094,25.05121 -5.57122,31.05036 -4.02705,3.76765 -9.02211,6.10689 -13.04028,6.10689 -5.43274,0 -12.04723,-3.77187 -14.0627,-8.01916 -2.43192,-5.1249 -1.5177,-7.00429 2.9954,-6.15763 3.14702,0.59039 3.83737,0.28311 5.9131,-2.63197 5.53126,-7.76794 3.38665,-16.58004 -4.93046,-20.25909 -17.11877,-7.57245 -31.93555,14.52755 -21.92038,32.69539 1.70783,3.09804 5.4926,7.78736 8.41061,10.42071 8.6225,7.78139 15.42666,9.82084 31.16866,9.34236 9.0529,-0.27516 10.72013,-0.6549 16.57399,-3.77496 z m -186.98896,1.03858 c 1.62125,-0.78729 3.67911,-3.18442 4.67871,-5.45006 1.96692,-4.45812 2.59935,-4.80157 4.53868,-2.46484 1.58897,1.9146 7.75233,2.09026 9.23844,0.2633 0.58897,-0.72406 5.41761,-16.70845 10.73031,-35.52085 5.31269,-18.8124 10.11273,-34.75054 10.66675,-35.4181 0.55402,-0.66755 2.45212,-1.50269 4.21799,-1.85587 2.57273,-0.51454 3.14351,-1.10672 2.87265,-2.98029 -0.42238,-2.9215 -5.77058,-4.21686 -15.60924,-3.78064 -6.64492,0.29461 -6.8557,0.39076 -7.18652,3.2781 -0.26169,2.28402 0.16619,3.10717 1.84307,3.54569 1.20114,0.31411 2.18389,1.33101 2.18389,2.25981 0,2.15494 -6.34799,28.69825 -7.28334,30.45434 -0.62022,1.16446 -7.46464,-25.10602 -13.85771,-53.18914 -1.43411,-6.29967 -2.71329,-9.74197 -3.6202,-9.74197 -0.77134,0 -4.73812,3.06114 -8.81504,6.80253 -4.07693,3.74139 -9.32753,7.77946 -11.66802,8.97348 -5.44767,2.7792 -5.4845,4.89491 -0.10102,5.80444 4.00156,0.67606 4.23169,0.94101 6.25535,7.20158 4.13088,12.77972 15.91989,56.96872 15.91989,59.67286 0,0.74211 -0.87527,0.57229 -2.34071,-0.45415 -1.28739,-0.90172 -4.28534,-1.6395 -6.66212,-1.6395 -6.24188,0 -9.45451,3.648 -9.351,10.61819 l 0.0769,5.1796 h -5.60616 -5.60615 v -45.65244 c 0,-44.14076 0.0697,-45.73286 2.10637,-48.0811 2.53046,-2.91765 2.72276,-5.85723 0.44045,-6.73303 -0.91625,-0.35161 -7.31435,-0.63927 -14.21801,-0.63927 H 295.4186 v 2.77549 c 0,1.60769 1.10783,3.80219 2.63297,5.21564 l 2.63296,2.44015 v 45.30717 45.30717 l -3.42285,0.88086 c -2.73373,0.70352 -3.49405,1.49427 -3.77651,3.92763 -0.65445,5.63827 1.04221,6.00418 25.63011,5.52748 15.52033,-0.30091 22.98014,-0.848 25.01116,-1.83426 z M 217.29681,523.08281 c 0.20156,-1.03924 -0.33571,-1.7558 -1.31648,-1.7558 -0.97697,0 -1.657,0.90048 -1.657,2.19414 0,2.56666 2.46105,2.20386 2.97348,-0.43834 z m 117.22762,-12.07622 5.93044,-2.8444 -4.6255,-15.79779 c -2.54402,-8.68878 -5.34932,-18.30271 -6.23398,-21.36428 -0.88468,-3.06158 -2.06432,-5.2848 -2.62142,-4.94049 -1.10384,0.68221 -1.44933,43.42605 -0.37366,46.22916 0.81238,2.11704 0.84934,2.11106 7.92412,-1.2822 z m -70.912,-1.47526 c 0.6951,-0.6951 1.26382,-2.14987 1.26382,-3.2328 0,-3.38262 -4.66871,-1.90966 -5.07258,1.60036 -0.35739,3.10598 1.5274,3.9138 3.80876,1.63244 z m 29.88839,-14.79726 c 0.18592,-5.35808 0.17381,-14.12586 -0.0269,-19.48394 -0.40417,-10.78856 -0.3417,-10.7192 -7.67504,-8.52207 l -4.07164,1.21989 0.0104,14.84119 0.0104,14.84119 4.94977,3.42286 c 2.72238,1.88257 5.29069,3.42285 5.70735,3.42285 0.41665,0 0.90968,-4.38389 1.0956,-9.74197 z m -76.43821,-36.12026 c 0.37018,-1.47488 0.45839,-5.27 0.19604,-8.43359 -0.54534,-6.57611 -2.98038,-9.89689 -9.78103,-13.33886 -2.31701,-1.1727 -7.1953,-4.2457 -10.84064,-6.82889 l -6.6279,-4.69671 -5.48374,1.27145 c -8.39019,1.94534 -8.30967,1.90728 -7.38512,3.49125 0.46651,0.79923 5.58753,5.38434 11.38005,10.18911 5.79253,4.80478 13.51129,11.50165 17.15281,14.88191 7.27204,6.75033 10.33125,7.68084 11.38953,3.46433 z m 148.99533,-13.52506 c 2.22779,-0.93672 5.5825,-1.27167 9.33629,-0.93217 4.76463,0.43091 6.33299,0.14568 8.3963,-1.52693 3.37787,-2.73828 2.05986,-4.4989 -3.38929,-4.52745 -5.51258,-0.0289 -11.89631,-2.92026 -15.93267,-7.21637 -4.53558,-4.82745 -5.85987,-4.32134 -5.8529,2.23687 0.006,6.07371 1.69457,13.42812 3.08227,13.42812 0.48552,0 2.44752,-0.65793 4.36,-1.46207 z m 30.82675,-6.95773 c 2.85058,-3.38774 4.43033,-7.15126 3.42411,-8.15749 -0.88618,-0.88618 -9.05024,7.93249 -9.05024,9.77593 0,2.54221 2.80384,1.73564 5.62613,-1.61844 z m 61.77776,-2.9309 c 0,-6.05613 -5.33182,-9.7545 -8.52167,-5.91098 -1.21758,1.4671 -0.88212,2.17695 2.48854,5.26593 4.73034,4.33504 6.03313,4.47432 6.03313,0.64505 z m -67.84673,-6.44472 c 2.36308,-1.07325 5.50694,-3.49803 6.98639,-5.38841 2.59737,-3.31883 2.77459,-3.37769 5.15321,-1.71165 3.727,2.61048 16.21063,2.36086 20.76396,-0.41521 l 3.49813,-2.13273 3.1651,2.66326 c 7.81853,6.57886 22.87915,0.95332 22.97897,-8.58327 0.0436,-4.16765 -2.33477,-6.65764 -6.3593,-6.65764 h -3.08433 v -11.4293 c 0,-13.78525 -1.50811,-16.85526 -10.55671,-21.48997 -5.32069,-2.72526 -6.55772,-2.93127 -15.96208,-2.65833 -11.15884,0.32387 -15.77909,2.31118 -16.48582,7.09107 -0.96762,6.54436 2.61423,10.28265 8.04005,8.3912 3.49626,-1.21881 4.88951,-4.44636 3.24546,-7.51832 -0.9893,-1.84853 -0.69262,-1.97261 3.99945,-1.67279 4.61943,0.29516 5.22704,0.65011 6.86458,4.00998 0.9881,2.02738 1.81932,4.8032 1.84714,6.1685 0.0404,1.98388 -0.31951,2.31646 -1.79249,1.65627 -1.01369,-0.45434 -4.13576,-1.02753 -6.93792,-1.27373 -10.8659,-0.95472 -19.475,5.5144 -20.37362,15.30929 -0.72359,7.88711 -1.23547,9.44975 -3.26969,9.98171 -1.13702,0.29734 -2.44052,2.28565 -3.23343,4.93217 -0.76469,2.55231 -1.86068,4.25692 -2.5826,4.01673 -0.90194,-0.30009 -1.3342,-6.38202 -1.53924,-21.65729 l -0.2851,-21.24002 h 5.22801 c 5.76143,0 8.50702,-2.32753 8.50702,-7.2117 0,-2.31828 -0.28677,-2.46257 -3.42286,-1.72228 -1.88257,0.44441 -4.84465,0.8591 -6.58241,0.92154 l -3.15956,0.11355 -0.85309,-8.42549 c -1.34854,-13.31877 -1.79523,-15.44084 -3.15676,-14.99684 -0.69084,0.2253 -3.37521,3.45477 -5.96526,7.17664 -5.78045,8.30641 -14.73645,17.46261 -18.46877,18.88164 -4.68658,1.78183 -3.01925,4.67594 2.9136,5.05735 l 4.99316,0.321 0.0325,14.4236 c 0.0368,16.32263 1.41528,29.20782 3.3793,31.58734 4.58976,5.56078 14.51308,7.09824 22.47499,3.48213 z m -161.93338,-1.76023 c 2.12946,-0.88816 5.34694,-3.04249 7.14996,-4.78742 l 3.27822,-3.17259 3.79324,2.57416 c 6.70104,4.54746 15.46395,4.7613 22.47899,0.54857 2.16592,-1.30069 3.57894,-1.61796 4.0209,-0.90284 1.36077,2.20176 9.32234,5.45995 13.76152,5.63175 3.70205,0.14328 5.13014,-0.38258 7.68415,-2.82946 2.96061,-2.83646 3.35673,-2.93294 7.04447,-1.71588 4.71465,1.55598 21.02832,0.92717 22.83569,-0.88021 0.95315,-0.95315 0.92656,-2.11228 -0.1145,-4.99131 -1.62885,-4.50447 -2.13975,-39.98388 -0.59609,-41.39423 0.55155,-0.50389 2.47447,-1.19024 4.27318,-1.52522 l 3.27036,-0.60904 0.52609,17.58405 c 0.64038,21.40455 0.24283,25.5588 -2.51489,26.27996 -1.47401,0.38546 -1.94441,1.28928 -1.71235,3.29006 l 0.31997,2.75861 h 13.41225 13.41225 l 3.62611,-3.68615 c 3.64208,-3.70239 4.13321,-4.85901 3.90272,-9.1911 -0.17742,-3.33466 -4.59641,-6.05271 -7.40057,-4.55196 -2.78133,1.48852 -3.02169,0.35146 -3.55682,-16.8263 -0.46203,-14.83112 -1.5125,-18.11757 -6.964,-21.78732 -4.39991,-2.96185 -8.4841,-3.03707 -16.43194,-0.30261 -3.36725,1.1585 -6.28504,2.10637 -6.48399,2.10637 -0.19895,0 -0.36171,-1.18483 -0.36171,-2.63296 0,-1.44813 -0.35546,-2.61219 -0.78989,-2.58679 -0.43444,0.0254 -5.7662,2.28034 -11.84835,5.01097 -9.99619,4.48786 -11.09171,5.25515 -11.40472,7.98771 -0.31549,2.75407 -0.11215,2.96417 2.28618,2.36223 2.28226,-0.57282 2.72459,-0.24121 3.32506,2.49273 1.10686,5.03945 0.89868,30.81606 -0.27221,33.70629 -1.05181,2.59627 -1.09195,2.57059 -2.88077,-1.84308 -1.6331,-4.02944 -2.17047,-4.47604 -5.3859,-4.47604 -3.49332,0 -3.5718,0.0972 -3.5718,4.42339 0,2.72322 -0.37359,4.03882 -0.97199,3.42285 -0.5942,-0.61163 -0.55298,-3.25203 0.10604,-6.79305 1.78467,-9.5892 0.68719,-22.91779 -2.34296,-28.45453 -4.60832,-8.42041 -17.75692,-13.04804 -29.90697,-10.52569 -7.33699,1.52315 -12.17111,5.32997 -12.17111,9.58463 0,3.53564 3.2496,7.27869 6.31912,7.27869 2.14395,0 6.31911,-3.42239 6.31911,-5.17979 0,-0.53188 0.27177,-1.67526 0.60393,-2.54086 0.37295,-0.9719 -0.13053,-1.76369 -1.31648,-2.07033 -1.05623,-0.2731 0.25732,-0.55152 2.91899,-0.61871 5.63696,-0.14231 7.54035,1.44653 9.24539,7.7175 1.22459,4.50395 0.81665,5.90327 -1.14816,3.93845 -1.53342,-1.53341 -9.46969,-1.61238 -14.74701,-0.14673 -2.1542,0.59829 -5.35,2.2938 -7.10178,3.76783 l -3.18504,2.68003 -1.07826,-2.9838 c -2.60222,-7.20101 -5.05986,-12.10219 -11.26619,-22.46775 -4.9712,-8.30272 -6.59385,-11.97703 -6.51148,-14.74461 l 0.10971,-3.68615 0.97194,4.32208 c 1.29154,5.74337 4.87545,8.95504 10.72923,9.61484 4.24289,0.47824 5.07003,0.17583 8.75437,-3.20061 3.71323,-3.40293 4.06876,-4.20256 4.06876,-9.15118 0,-4.9885 -0.34452,-5.7438 -4.30504,-9.43813 -4.93143,-4.59999 -10.10355,-5.92547 -18.855,-4.83205 -12.41367,1.55098 -19.94807,10.12623 -19.93621,22.69032 0.006,6.50836 0.44486,7.70205 8.90272,24.22327 8.14266,15.90552 8.89714,17.89788 8.90666,23.51978 0.009,5.57907 -0.29676,6.41668 -3.33993,9.13574 -3.66877,3.27805 -6.34403,3.24618 -9.38291,-0.11174 -1.71303,-1.89289 -1.71245,-2.11053 0.0107,-4.01462 1.07773,-1.19087 1.68215,-3.23434 1.47972,-5.00264 -0.2851,-2.4902 -0.89348,-3.04299 -3.64331,-3.31033 -4.73558,-0.46041 -7.75739,3.63698 -7.75739,10.51853 0,7.18681 3.18546,10.0632 14.21801,12.83852 3.38165,0.85068 12.99065,-0.29181 17.19198,-2.0441 z m 11.77064,-2.56126 c 0,-1.1702 -0.70213,-2.10637 -1.57978,-2.10637 -0.87765,0 -1.57978,0.93617 -1.57978,2.10637 0,1.17021 0.70213,2.10637 1.57978,2.10637 0.87765,0 1.57978,-0.93616 1.57978,-2.10637 z m 305.63591,-17.91932 c 5.49021,-4.5255 10.31985,-14.65747 10.31985,-21.64975 0,-4.9053 -0.37337,-5.84485 -3.30203,-8.30915 -2.7032,-2.27459 -4.17707,-2.72131 -8.12724,-2.46329 -4.16994,0.27238 -5.15777,0.81007 -7.27407,3.95943 -3.34858,4.98317 -2.7982,7.84781 1.58907,8.27082 2.07348,0.19992 3.42285,0.91094 3.42285,1.80357 0,2.59576 -4.22543,12.86968 -6.46287,15.71413 -4.87325,6.19532 2.97401,8.32919 9.83444,2.67424 z m -89.0597,-11.64804 c 3.98951,-10.1192 3.99141,-10.16599 0.48598,-11.97872 -1.73848,-0.89899 -3.596,-1.63454 -4.12784,-1.63454 -1.07041,0 -2.3045,15.01573 -1.49006,18.13015 0.84308,3.2239 2.73749,1.55653 5.13192,-4.51689 z m -245.02252,3.50101 c -0.0125,-2.23996 -4.87062,-12.90153 -5.87879,-12.90153 -0.78142,0 0.21733,10.35523 1.26109,13.07522 0.88231,2.29927 4.63071,2.15828 4.6177,-0.17369 z m 145.34994,-5.21327 c 0,-2.89016 -0.30655,-3.59024 -1.18671,-2.71008 -0.67036,0.67037 -0.89075,2.36591 -0.50653,3.89679 0.96859,3.8592 1.69324,3.35132 1.69324,-1.18671 z m 118.33413,-21.35312 c 6.01616,-6.65917 6.32625,-11.64937 1.10915,-17.84954 -1.49978,-1.7824 -2.21083,-3.24073 -1.58008,-3.24073 1.29806,0 1.53102,-5.13755 0.31936,-7.04312 -2.49256,-3.92 -12.07305,-4.11253 -15.51271,-0.31175 -3.00675,3.32243 -2.18747,7.68127 2.57658,13.70826 5.99509,7.58435 5.5205,12.60396 -1.19167,12.60396 -3.48433,0 -3.72966,-1.07335 -0.84254,-3.68615 2.56139,-2.31802 2.70417,-5.49271 0.36336,-8.07927 -3.77958,-4.17638 -9.62869,-0.79819 -10.55329,6.09513 -1.09578,8.16969 3.57747,11.87484 15.07001,11.94818 6.21397,0.0396 6.60381,-0.11813 10.24183,-4.14497 z M 289.91859,369.208 c 1.31936,-1.39162 8.25832,-5.48682 15.41993,-9.10044 l 13.02108,-6.57021 2.92983,2.3046 c 2.52287,1.98448 3.75034,2.21176 8.83706,1.63627 7.02065,-0.7943 11.80682,0.87458 18.69457,6.51858 l 4.59168,3.76254 3.75651,-2.86523 c 2.06607,-1.57587 5.96052,-5.76685 8.65434,-9.31329 8.82915,-11.62371 10.89441,-13.29541 16.42544,-13.29541 3.79029,0 5.47492,0.5824 7.47762,2.5851 2.20852,2.20852 2.58509,3.57139 2.58509,9.35583 0,6.13124 0.22383,6.83073 2.36967,7.40579 3.08355,0.82636 20.65459,0.65449 23.62239,-0.23106 4.08632,-1.21929 12.64314,-12.16628 14.49842,-18.54826 0.93119,-3.20317 3.14369,-7.4761 4.91666,-9.4954 l 3.22358,-3.67147 -2.46174,-1.06928 c -5.39441,-2.34309 -27.91438,-7.44915 -41.64358,-9.44204 -18.12211,-2.63054 -44.51859,-4.24857 -69.52786,-4.26186 -19.14578,-0.0102 -46.96331,2.73347 -69.80533,6.88488 -10.35648,1.88223 -28.59557,6.61809 -29.75244,7.72536 -0.4344,0.41578 1.99416,1.33098 5.39678,2.03378 4.70384,0.97156 7.36268,2.31306 11.0937,5.59723 6.61904,5.82632 7.99603,8.85465 7.99603,17.58526 v 7.29254 l 8.99273,0.47199 c 8.03695,0.42183 9.85593,0.93074 17.11427,4.78819 4.46685,2.3739 8.35851,4.34544 8.64813,4.38121 0.28963,0.0358 1.60607,-1.07357 2.92544,-2.4652 z m 149.81313,-8.94474 c 6.02173,-6.02172 11.55843,-14.31413 11.55843,-17.31122 0,-2.61968 -2.92925,-5.93256 -5.24557,-5.93256 -0.96776,0 -2.82169,1.13059 -4.11985,2.51242 -1.86889,1.98934 -2.22154,3.25208 -1.69382,6.06509 0.54628,2.91186 0.0829,4.35833 -2.56922,8.01944 -1.77965,2.45672 -3.69001,4.46677 -4.24525,4.46677 -1.48645,0 -3.44351,4.13939 -2.77757,5.87482 1.03863,2.70662 3.82277,1.57532 9.09285,-3.69476 z m -244.88651,-1.1363 c 2.11609,-3.42391 -3.02572,-7.36287 -9.61127,-7.36287 -5.16431,0 -4.41331,2.78728 1.60891,5.97134 5.07373,2.68257 6.99769,3.01713 8.00236,1.39153 z m 4.82004,-15.36602 c 0.76869,-0.92622 4.1648,-3.81333 7.54692,-6.41581 4.23232,-3.25669 6.3388,-5.67924 6.75716,-7.77103 0.33431,-1.67158 1.15851,-3.49624 1.83153,-4.05481 1.87331,-1.5547 22.56924,-7.14328 39.52211,-10.67225 47.05134,-9.7944 93.6491,-10.79496 141.41319,-3.03646 16.40194,2.66424 51.07785,11.0678 54.25241,13.14785 1.38551,0.90783 2.40795,2.63589 2.40795,4.06976 0,1.37061 0.84876,3.54018 1.88612,4.82127 1.83366,2.26447 2.03582,2.2848 7.26868,0.73081 6.44726,-1.91464 11.31609,-1.09432 17.03731,2.87049 5.23492,3.6278 6.85195,3.45006 10.35251,-1.13794 2.58008,-3.38159 2.99636,-4.96469 3.32086,-12.6293 0.23316,-5.50717 -0.25746,-11.60338 -1.32048,-16.40761 -0.93031,-4.20448 -2.38922,-13.3016 -3.242,-20.21579 -1.34568,-10.91048 -1.93649,-13.04709 -4.47204,-16.1729 -8.46984,-10.44148 -39.12538,-22.92419 -72.95839,-29.70812 -27.59265,-5.53265 -31.16696,-5.79474 -78.46235,-5.75328 -40.28628,0.0353 -45.54965,0.24554 -58.97841,2.35558 -38.09603,5.98594 -75.65589,18.67051 -88.33691,29.8328 -5.76889,5.07797 -7.74568,10.03367 -9.00554,22.57631 -0.52574,5.23406 -1.76379,12.58003 -2.75121,16.32438 -2.42263,9.1867 -2.4817,22.58559 -0.11942,27.08624 4.22371,8.04703 22.03746,14.99462 26.05,10.15981 z M 515.12646,236.14792 c 5.85759,-3.02364 13.53466,-11.79606 15.5823,-17.80557 0.92219,-2.70646 1.67671,-7.83097 1.67671,-11.38778 0,-14.02967 -5.51265,-23.20366 -17.48465,-29.09746 -26.58793,-13.08919 -53.29134,12.06583 -43.89305,41.34791 2.34943,7.32007 9.39772,14.53737 17.2098,17.6225 7.56819,2.98881 20.43154,2.66395 26.90889,-0.6796 z m -52.23261,-33.14634 c 2.17907,-8.45919 3.21678,-11.04507 6.86076,-17.09649 2.00884,-3.33602 3.65245,-6.64977 3.65245,-7.36386 0,-1.22068 -18.57405,-14.40815 -22.31551,-15.84388 -1.90145,-0.72966 -7.1737,5.95295 -7.1737,9.09272 0,0.95599 2.7662,7.59952 6.14711,14.76341 3.38091,7.16389 6.92774,14.8025 7.88185,16.97469 0.95412,2.1722 2.19809,3.94945 2.76439,3.94945 0.56629,0 1.54848,-2.01422 2.18265,-4.47604 z m -228.4339,-41.73833 c 15.62758,-7.21996 39.79848,-13.65173 59.90551,-15.94059 12.95437,-1.47463 65.0166,-1.4723 77.91601,0.003 21.55579,2.46617 41.68284,7.75828 57.26619,15.05734 8.97704,4.20473 9.38101,4.29384 10.78176,2.3782 2.02905,-2.77491 2.90313,-8.2851 2.04223,-12.87416 -0.98208,-5.23488 -10.46013,-14.43351 -20.07739,-19.4855 -21.36686,-11.22408 -75.75224,-21.90683 -112.02158,-22.00404 -29.98237,-0.0803 -53.57659,3.47999 -67.18915,10.1388 -13.07066,6.39371 -22.47107,19.51839 -23.29962,32.53045 -0.44918,7.0542 1.74919,14.28293 4.34366,14.28293 0.81742,0 5.467,-1.83911 10.33238,-4.08693 z"
     id="path36"
     transform="scale(0.75)"
     sodipodi:nodetypes="csssssssssssscsssssssssscssssssssscsssssssssssssscsscssssssssssccccccssssssssssssssssssssssscsssssccssssssssssssssssssssssssssssssssssssssssssssssssssssssssssssssscsssssscccssscccccccccccccssssssssscsssscsssccssssssssssssssssssssssssssssssssssssssssssssssssssssssscccsssscsscccsssssssssscsssssssssssscccsssssssscsssssssssscsssssssssssssscssscsssssssssssssssscsssscssssscsssssscsssssssssscssscccssssssssssssssssssssssssssssssscssscsssssscscsssssssssssssssssssssssssssssssssssssssssssssssssscssscssssssssscsssssssscssssssssssssssssssssssssssssssssssssssssssssssssssssssssscscsssssssscc" />
  <path
     style="fill:#ffb380;fill-opacity:0.891667;stroke-width:1.05319"
     d="m 278.79104,366.09143 c -7.06897,-3.66489 -9.11721,-4.22531 -16.94445,-4.63613 l -8.90349,-0.46731 0.56905,-5.51357 c 0.32064,-3.10669 0.0165,-7.18791 -0.69679,-9.34909 -1.77513,-5.37871 -9.6882,-12.98164 -15.117,-14.52453 -2.42973,-0.69053 -4.7909,-1.57254 -5.24705,-1.96 -1.21623,-1.03309 19.78294,-5.97748 35.5845,-8.3786 35.97945,-5.46725 59.23728,-6.4888 96.34831,-4.23189 27.02421,1.64348 42.9735,4.26808 70.90436,11.66797 l 4.00887,1.06209 -3.21093,3.65703 c -1.84817,2.10495 -3.48931,5.398 -3.86686,7.75911 -0.76814,4.80368 -10.76166,18.09151 -14.41841,19.17138 -3.24356,0.95784 -21.02801,1.02827 -22.43816,0.0888 -0.63882,-0.42557 -1.42729,-3.78023 -1.75214,-7.4548 -0.79882,-9.03564 -3.27666,-11.74971 -10.72703,-11.74971 -6.73512,0 -8.36466,1.14688 -16.41445,11.5526 -3.54752,4.58577 -8.00917,9.52698 -9.91478,10.98046 l -3.46475,2.6427 -2.44772,-2.60549 c -1.34626,-1.43302 -4.98013,-3.84447 -8.07527,-5.35878 -4.764,-2.3308 -6.53657,-2.65948 -11.5514,-2.14191 -4.87866,0.50353 -6.38323,0.25006 -8.52743,-1.43657 -1.43197,-1.12638 -3.28642,-2.04797 -4.12102,-2.04797 -2.30186,0 -26.85201,12.76317 -29.34805,15.25751 l -2.18694,2.18546 z"
     id="path56"
     transform="scale(0.75)" />
  <ellipse
     style="fill:#000000;fill-opacity:0.891667;stroke-width:0.851111"
     id="ellipse57"
     cx="271.32703"
     cy="243.87837"
     rx="4.3443918"
     ry="4.7393365" />
  <ellipse
     style="fill:#000000;fill-opacity:0.891667;stroke-width:0.851111"
     id="ellipse58"
     cx="229.26541"
     cy="243.08849"
     rx="4.3443918"
     ry="4.7393365" />
</svg>
